<svg id="icon" data-name="icon" xmlns="http://www.w3.org/2000/svg" viewBox="0 0 141.6 141.9">
  <title>icon</title>
  <path class="cls-1" d="M77.6,6.55A70.91,70.91,0,0,0,6.7,77.45c0,1.3,0,2.6.1,3.9,0,.4.1.8.1,1.3.1.9.1,1.7.2,2.6.1.5.1,1,.2,1.5.1.8.2,1.5.3,2.3l.3,1.5c.1.7.3,1.5.4,2.2l.3,1.5c.2.7.4,1.5.6,2.2.1.5.3,1,.4,1.4.2.7.5,1.5.7,2.2.1.4.3.9.4,1.3l.9,2.4c.1.4.3.7.4,1.1l1.5,3.3h0c.5,1.1,1.1,2.2,1.7,3.3a3.51,3.51,0,0,0,.5.8c.4.8.9,1.6,1.4,2.4a6.07,6.07,0,0,0,.7,1c.4.7.9,1.4,1.3,2,.3.4.5.7.8,1.1.5.6.9,1.3,1.4,1.9a7.63,7.63,0,0,1,.8,1.1l1.5,1.8c.3.3.6.7.9,1,.5.6,1.1,1.2,1.6,1.8a6.47,6.47,0,0,1,.8.9l1.9,1.9a4.35,4.35,0,0,0,.7.6l2.7,2.4c.7-11.3-5.4-30.7-4-41.2,1.6-5.8,4.8-9.1,11.1-7.9-.1-4.9,0-10.7,2.5-15.1,2.7-4.6,7.2-5.4,12.1-4.2.1-4.4.2-9.4,2.3-13.3,2.6-5,7.2-5,12-2.9,8.5-28.8,27.2-34.1,32.4-32.2,12,4.4,8.5,35,7.3,36.8,2.3,1.2,5.7.8,6.2,3.5.5,2.5-1.7,6.9-2.9,9.1-2.6,4.9-6.6,8.9-10.4,12.9.3.1.5.4.7.5-4.1,4.5-8,9.1-12.4,13.2a113.06,113.06,0,0,1-14.6,11.2,79.73,79.73,0,0,0,5.2-13.3c.8-3,2.3-4.1,4.5-6.2,1.7-1.7,3.4-3.3,5.1-5.1a102.51,102.51,0,0,0,9.5-11.4c2.9-4.1,5.2-8.6,7.7-12.9a128.28,128.28,0,0,1-25.1,28.9c2.4-9.3,13.3-41.4,13.7-51-1.4,9.4-13,41.1-15.4,50.3-5.5-9.6-8.6-19.8-11.3-30.4A109,109,0,0,0,75.3,77c.9,2.2,2,4.4,3,6.6,1,2-.3,4.1-.9,6.1a108.82,108.82,0,0,1-5.6,13.2,178.42,178.42,0,0,1-8.5-18.3,173.6,173.6,0,0,1-5.4-18.7c1,5.1,1.6,10.4,3,15.4A109.45,109.45,0,0,0,66.7,97c1.2,2.7,2.6,5.4,3.8,8,.6,1.2-2.7,5.4-3.5,6.6a105.45,105.45,0,0,1-10,12.3c-.1.1-.2.2-.2.3a117,117,0,0,1-9-18.5A173.6,173.6,0,0,1,42.4,87c.9,5.2,1.7,10.3,3,15.4a98.66,98.66,0,0,0,5.8,15.7c1.2,2.7,2.5,5.2,3.8,7.8.4.8-4.7,4.6-5.2,5-2,1.7-4.1,4.2-6.7,5-1.3.4-2.5.8-3.8,1.2,2.1,1.3,4.2,2.5,6.4,3.6h0a20,20,0,0,0,2.1,1c.1,0,.2.1.3.1,2,.9,4.1,1.7,6.2,2.5a4.18,4.18,0,0,1,1,.4,10.93,10.93,0,0,0,1.7.5,8.33,8.33,0,0,0,1.5.4l2.2.6c.6.1,1.2.3,1.8.4l1.3.3c.7.1,1.4.3,2,.4.3.1.7.1,1,.2,1,.1,2,.3,3,.4.3,0,.6.1.9.1.8.1,1.6.1,2.4.2a3.75,3.75,0,0,1,1,.1c1.1,0,2.2.1,3.3.1a71,71,0,0,0,.2-141.9Zm27.8,83.6c-2.5,4.1-6.5,7.2-10.4,9.9,1.8,1.4,4.7,1.8,5.3,4.2s-1.8,5.8-3.5,7.3c-4.1,3.3-9,5.5-13.7,7.7-1.8.8-2.3,5-3.1,6.8a26.84,26.84,0,0,1-3.7,6.1c-3.4,3.9-8.5,5.2-13.5,5.3a57.92,57.92,0,0,1-14.8-2.4l8.8-7.6a191.29,191.29,0,0,0,18.7-10.3c5.9-3.9,10.7-8.9,15.9-13.5-9.8,7.7-19.5,14.8-31,19.7a89.13,89.13,0,0,0,12.3-16.9,161.12,161.12,0,0,0,16.1-12.5c5-4.7,9.1-10.1,13.2-15.6C109.5,74.55,108.6,85.15,105.4,90.15Z" transform="translate(-6.7 -6.55)"></path>
</svg>