<svg id="rics-logo" xmlns="http://www.w3.org/2000/svg" viewBox="0 0 499.01 178.32">
  <title>RICS logo</title>
  <path class="theme-svg2" d="M121.3,185.67a89.36,89.36,0,0,1-20.85,2.45c-1.87,0-3.72-.05-5.56-.17.82-6.75,1.6-17.14-.18-23.63-2.53-9.17-21.79-32.56-21.79-32.56l-2.57,12.31s-11.27-5.64-9.22-27.17C63.87,88,85.22,78.7,85.22,78.7S77.53,92,74.45,100.23,76.76,120,76.76,120l3.84-5.13s13.07,17.43,21.27,23.84,15.13,18.45,17.95,27.17c1.7,5.24,1.72,13.81,1.47,19.82M138.88,18.42a89.23,89.23,0,0,1,5.24,158.3c1.09-18.26-9.89-28-14.3-33.68-5.39-6.92-28.71-16.66-37.68-31.79s.52-36.39.52-36.39-4.1-.52-7.18-7.95,4.1-15.64,4.1-15.64a36.45,36.45,0,0,0,2.56,11.28c2.31,5.38,12.56,5.12,12.56,5.12s-7.43,10.77-4.61,27.94,28.45,28.44,28.45,28.44,4.61-1.28,11.27,1a12.2,12.2,0,0,1,8,8.08s4.58-4.49,6.37-9.1c.64-1.62.7-6.85.7-8.89a13.44,13.44,0,1,1,4-14.55c4.34-1.4,7.74-12.41,7.74-12.41,5.34-.66,7.32-6.19,7.32-6.19L143.12,67.47l2.33-5.06s-4-4.67-7.73-5.68c-1.49-.4-12.4-5.34-12.4-5.34ZM11.25,98.92A89.18,89.18,0,0,1,60,19.42L72.28,51.5A115.15,115.15,0,0,1,56.05,59.2c-8.52,3.15-19.73,17.74-19.73,17.74L47.18,78,48,80.1s-7.44,7-10.81,10.94a168.44,168.44,0,0,0-9.73,13.81s-1.4,23.22,8.87,43.06c9.22,17.82,29,32.45,29,32.45l0,.54a89.21,89.21,0,0,1-54-82m136.94,5.92s8,3.61,10.71,5.95a15.47,15.47,0,0,0,14.22,2.86c4.24-1.41,6.39-7.64,6.39-7.64s-7.25,3.41-12.12,2.67-15.39-4.79-19.2-3.84" transform="translate(-11.25 -9.8)"></path>
  <path class="theme-svg2" d="M103.63,12.65a13.46,13.46,0,0,1,.3-2.85,88.85,88.85,0,0,1,26.43,5.07,13.46,13.46,0,0,1-26.73-2.22" transform="translate(-11.25 -9.8)"></path>
  <path class="theme-svg2" d="M94.23,9.94a13.72,13.72,0,0,1,.36,3.11A13.46,13.46,0,0,1,68,15.82,88.74,88.74,0,0,1,94.23,9.94" transform="translate(-11.25 -9.8)"></path>
  <path class="theme-svg2" d="M122.56,58.88s5.28.52,8.3,1.9a33.54,33.54,0,0,1,6.68,4.86s-5.53,6.68-11.27,3.82c-4.9-2.45-3.71-10.58-3.71-10.58" transform="translate(-11.25 -9.8)"></path>
  <path class="theme-svg2" d="M122.56,58.88s5.28.52,8.3,1.9a33.54,33.54,0,0,1,6.68,4.86s-5.53,6.68-11.27,3.82c-4.9-2.45-3.71-10.58-3.71-10.58" transform="translate(-11.25 -9.8)"></path>
  <path class="theme-svg2" d="M319,61.39H345.9v72.54H319Z" transform="translate(-11.25 -9.8)"></path>
  <path class="theme-svg2" d="M319,61.39H345.9v72.54H319Z" transform="translate(-11.25 -9.8)"></path>
  <path class="theme-svg2" d="M223.9,61.39h49.38s24.69.34,24.69,19c0,15.26-17.19,20.58-17.19,20.58s8.5,9.51,14.28,15.25c7.32,7.26,19.61,17.73,19.61,17.73H288s-5.57.18-12.34-6.11-21.07-25.9-21.07-25.9S275,92.53,272.3,82.3,256,73,250.76,73.7v60.23H223.9Z" transform="translate(-11.25 -9.8)"></path>
  <path class="theme-svg2" d="M223.9,61.39h49.38s24.69.34,24.69,19c0,15.26-17.19,20.58-17.19,20.58s8.5,9.51,14.28,15.25c7.32,7.26,19.61,17.73,19.61,17.73H288s-5.57.18-12.34-6.11-21.07-25.9-21.07-25.9S275,92.53,272.3,82.3,256,73,250.76,73.7v60.23H223.9Z" transform="translate(-11.25 -9.8)"></path>
  <path class="theme-svg2" d="M432.81,64.38a78.73,78.73,0,0,0-26.38-4.84c-13.8,0-52.54,2.66-52.54,40.18,0,29.77,35.59,34.19,54.72,34.19,15,0,24.2-3.69,24.2-3.69V117.88A69.71,69.71,0,0,1,411,121.27c-14.33-.31-30.26-6.06-30.26-24.69,0-19.13,15.39-25.57,29.53-24.94A71.17,71.17,0,0,1,432.81,77Z" transform="translate(-11.25 -9.8)"></path>
  <path class="theme-svg2" d="M432.81,64.38a78.73,78.73,0,0,0-26.38-4.84c-13.8,0-52.54,2.66-52.54,40.18,0,29.77,35.59,34.19,54.72,34.19,15,0,24.2-3.69,24.2-3.69V117.88A69.71,69.71,0,0,1,411,121.27c-14.33-.31-30.26-6.06-30.26-24.69,0-19.13,15.39-25.57,29.53-24.94A71.17,71.17,0,0,1,432.81,77Z" transform="translate(-11.25 -9.8)"></path>
  <path class="theme-svg2" d="M500.83,62.21s-14-2.9-23.24-2.66-37.28-.72-36.31,24.69c.56,14.77,24.45,20.09,31.47,21.79s10.65,3.87,10.65,9.68-14,7-20.82,6.3S442,116.92,442,116.92v13.32a131,131,0,0,0,31.72,3.69c13.55,0,36.55-6.59,36.55-23.78,0-21.31-23.48-22.27-30-24.45s-12.1-3.39-12.1-8.71,13-6.8,19.36-6.05a30.82,30.82,0,0,1,13.32,4.6Z" transform="translate(-11.25 -9.8)"></path>
  <path class="theme-svg2" d="M500.83,62.21s-14-2.9-23.24-2.66-37.28-.72-36.31,24.69c.56,14.77,24.45,20.09,31.47,21.79s10.65,3.87,10.65,9.68-14,7-20.82,6.3S442,116.92,442,116.92v13.32a131,131,0,0,0,31.72,3.69c13.55,0,36.55-6.59,36.55-23.78,0-21.31-23.48-22.27-30-24.45s-12.1-3.39-12.1-8.71,13-6.8,19.36-6.05a30.82,30.82,0,0,1,13.32,4.6Z" transform="translate(-11.25 -9.8)"></path>
</svg>